<svg preserveAspectRatio="none" width="100%" height="100%" overflow="visible" style="display: block;" viewBox="0 0 15.4027 16.3087" fill="none" xmlns="http://www.w3.org/2000/svg">
<g id="Frame">
<path id="Vector" fill-rule="evenodd" clip-rule="evenodd" d="M3.08054 2.17449C2.51343 2.17449 2.05369 2.66128 2.05369 3.26174V13.047C2.05369 13.6475 2.51343 14.1342 3.08054 14.1342H12.3221C12.8893 14.1342 13.349 13.6475 13.349 13.047V9.2416C13.349 8.94137 13.1191 8.69798 12.8356 8.69798C12.5521 8.69798 12.3221 8.94137 12.3221 9.2416V13.047H3.08054V3.26174H6.67449C6.95805 3.26174 7.18792 3.01835 7.18792 2.71812C7.18792 2.41789 6.95805 2.17449 6.67449 2.17449H3.08054ZM13.1987 2.33372C13.2478 2.38584 13.285 2.44592 13.3101 2.51003C13.3347 2.57318 13.3486 2.64234 13.349 2.71486V2.71812V5.97986C13.349 6.28009 13.1191 6.52348 12.8356 6.52348C12.5521 6.52348 12.3221 6.28009 12.3221 5.97986V4.03055L7.03753 9.626C6.83703 9.83831 6.51195 9.83831 6.31145 9.626C6.11094 9.4137 6.11094 9.0695 6.31145 8.85721L11.5961 3.26174H9.75503C9.47148 3.26174 9.24161 3.01835 9.24161 2.71812C9.24161 2.41789 9.47148 2.17449 9.75503 2.17449H12.8355C12.9051 2.17449 12.9715 2.18916 13.0321 2.21574C13.0927 2.24227 13.1494 2.2816 13.1987 2.33372Z" fill="var(--fill-0, #A3A3A3)"/>
</g>
</svg>
