<svg preserveAspectRatio="none" width="100%" height="100%" overflow="visible" style="display: block;" viewBox="0 0 15.4027 16.3087" fill="none" xmlns="http://www.w3.org/2000/svg">
<g id="Frame">
<path id="Vector" fill-rule="evenodd" clip-rule="evenodd" d="M3.08135 2.17444C2.51424 2.17444 2.0545 2.66122 2.0545 3.26169V13.0469C2.0545 13.6474 2.51424 14.1342 3.08135 14.1342H12.323C12.8901 14.1342 13.3498 13.6474 13.3498 13.0469V9.24155C13.3498 8.94131 13.1199 8.69792 12.8364 8.69792C12.5529 8.69792 12.323 8.94131 12.323 9.24155V13.0469H3.08135V3.26169H6.67531C6.95886 3.26169 7.18873 3.01829 7.18873 2.71806C7.18873 2.41783 6.95886 2.17444 6.67531 2.17444H3.08135ZM13.1995 2.33367C13.2487 2.38579 13.2858 2.44586 13.3109 2.50997C13.3355 2.57312 13.3494 2.64228 13.3498 2.7148V2.71806V5.9798C13.3498 6.28004 13.1199 6.52343 12.8364 6.52343C12.5529 6.52343 12.323 6.28004 12.323 5.9798V4.03049L7.03835 9.62594C6.83785 9.83825 6.51277 9.83825 6.31227 9.62594C6.11175 9.41365 6.11175 9.06945 6.31227 8.85715L11.5969 3.26169H9.75584C9.47229 3.26169 9.24242 3.01829 9.24242 2.71806C9.24242 2.41783 9.47229 2.17444 9.75584 2.17444H12.8363C12.9059 2.17444 12.9723 2.18911 13.0329 2.21569C13.0935 2.24222 13.1502 2.28154 13.1995 2.33367Z" fill="var(--fill-0, #A3A3A3)"/>
</g>
</svg>
