<svg width="223" height="53" viewBox="0 0 223 53" fill="none" xmlns="http://www.w3.org/2000/svg">
<path d="M0 53H32.4842V0H0V53Z" fill="#1C5CE5"/>
<path d="M44.4925 52.12V7.16H60.4525C64.9325 7.16 68.4658 8.04 71.0525 9.8C73.6392 11.5333 74.9325 14.12 74.9325 17.56C74.9325 19.3733 74.4925 21.0133 73.6125 22.48C72.7592 23.9467 71.5592 25.1067 70.0125 25.96C68.4925 26.7867 66.7192 27.2 64.6925 27.2H50.5725V52.12H44.4925ZM50.5725 22.32H60.1325C62.0525 22.32 63.6392 21.9067 64.8925 21.08C66.1725 20.2267 66.8125 19.0533 66.8125 17.56C66.8125 15.9333 66.2125 14.7067 65.0125 13.88C63.8125 13.0267 62.1725 12.6 60.0925 12.6H50.5725V22.32ZM81.242 52.12V7.16H87.322V27.52L100.842 12.56H107.522L94.042 27.2L108.322 52.12H101.442L90.802 33.24L87.322 37.04V52.12H81.242ZM129.284 52.12L127.324 43.68H114.724L112.724 52.12H106.604L118.084 7.16H123.964L135.484 52.12H129.284ZM115.804 38.92H126.244L121.044 16.52H120.964L115.804 38.92ZM141.602 52.12V7.16H147.682V46.68H164.242V52.12H141.602ZM171.865 52.12V7.16H177.945V52.12H171.865ZM201.218 52.12L199.258 43.68H186.658L184.658 52.12H178.538L190.018 7.16H195.898L207.418 52.12H201.218ZM187.738 38.92H198.178L192.978 16.52H192.898L187.738 38.92ZM213.57 52.12V7.16H218.41L232.09 38.36H232.21V7.16H237.89V52.12H233.21L219.37 20.6H219.25V52.12H213.57ZM247.931 52.12V7.16H257.651C262.344 7.16 266.198 8.16 269.211 10.16C272.224 12.16 273.731 15.0133 273.731 18.72C273.731 22.4 272.211 25.2667 269.171 27.32C266.158 29.3467 262.278 30.36 257.531 30.36H254.011V52.12H247.931ZM254.011 25.4H257.371C260.464 25.4 262.904 24.6933 264.691 23.28C266.478 21.84 267.371 19.9867 267.371 17.72C267.371 15.5333 266.504 13.8267 264.771 12.6C263.038 11.3733 260.624 10.76 257.531 10.76H254.011V25.4ZM293.754 52.12L291.794 43.68H279.194L277.194 52.12H271.074L282.554 7.16H288.434L299.954 52.12H293.754ZM280.274 38.92H290.714L285.514 16.52H285.434L280.274 38.92Z" fill="black"/>
</svg>

